<mxfile host="Electron" modified="2024-02-11T04:42:22.472Z" agent="Mozilla/5.0 (Windows NT 10.0; Win64; x64) AppleWebKit/537.36 (KHTML, like Gecko) draw.io/23.0.2 Chrome/120.0.6099.109 Electron/28.1.0 Safari/537.36" etag="D5pNC05hmd2Q9RMubTy8" version="23.0.2" type="device">
  <diagram name="Page-1" id="hqq98HJYnFobwKHnBBUL">
    <mxGraphModel dx="4097" dy="2440" grid="1" gridSize="10" guides="1" tooltips="1" connect="1" arrows="1" fold="1" page="1" pageScale="1" pageWidth="850" pageHeight="1400" math="0" shadow="0">
      <root>
        <mxCell id="0" />
        <mxCell id="1" parent="0" />
        <mxCell id="pRkRrKTo8ttl0fT0p-DP-1" value="" style="rounded=0;whiteSpace=wrap;html=1;sketch=1;hachureGap=4;jiggle=2;curveFitting=1;fontFamily=Architects Daughter;fontSource=https%3A%2F%2Ffonts.googleapis.com%2Fcss%3Ffamily%3DArchitects%2BDaughter;fontSize=20;" vertex="1" parent="1">
          <mxGeometry x="40" y="30" width="1440" height="3120" as="geometry" />
        </mxCell>
        <mxCell id="pRkRrKTo8ttl0fT0p-DP-2" value="Your Cart" style="rounded=0;whiteSpace=wrap;html=1;sketch=1;hachureGap=4;jiggle=2;curveFitting=1;fontFamily=Architects Daughter;fontSource=https%3A%2F%2Ffonts.googleapis.com%2Fcss%3Ffamily%3DArchitects%2BDaughter;fontSize=55;strokeColor=none;" vertex="1" parent="1">
          <mxGeometry x="110" y="150" width="300" height="60" as="geometry" />
        </mxCell>
        <mxCell id="pRkRrKTo8ttl0fT0p-DP-3" value="3 Items" style="rounded=0;whiteSpace=wrap;html=1;sketch=1;hachureGap=4;jiggle=2;curveFitting=1;fontFamily=Architects Daughter;fontSource=https%3A%2F%2Ffonts.googleapis.com%2Fcss%3Ffamily%3DArchitects%2BDaughter;fontSize=55;strokeColor=none;" vertex="1" parent="1">
          <mxGeometry x="90" y="270" width="280" height="110" as="geometry" />
        </mxCell>
        <mxCell id="pRkRrKTo8ttl0fT0p-DP-4" value="IMAGE" style="rounded=0;whiteSpace=wrap;html=1;sketch=1;hachureGap=4;jiggle=2;curveFitting=1;fontFamily=Architects Daughter;fontSource=https%3A%2F%2Ffonts.googleapis.com%2Fcss%3Ffamily%3DArchitects%2BDaughter;fontSize=20;fillColor=#60a917;fontColor=#ffffff;strokeColor=#2D7600;" vertex="1" parent="1">
          <mxGeometry x="150" y="470" width="340" height="280" as="geometry" />
        </mxCell>
        <mxCell id="pRkRrKTo8ttl0fT0p-DP-5" value="ITEM NAME" style="rounded=0;whiteSpace=wrap;html=1;sketch=1;hachureGap=4;jiggle=2;curveFitting=1;fontFamily=Architects Daughter;fontSource=https%3A%2F%2Ffonts.googleapis.com%2Fcss%3Ffamily%3DArchitects%2BDaughter;fontSize=46;strokeColor=none;" vertex="1" parent="1">
          <mxGeometry x="510" y="497.14" width="360" height="60" as="geometry" />
        </mxCell>
        <mxCell id="pRkRrKTo8ttl0fT0p-DP-6" value="" style="rounded=0;whiteSpace=wrap;html=1;sketch=1;hachureGap=4;jiggle=2;curveFitting=1;fontFamily=Architects Daughter;fontSource=https%3A%2F%2Ffonts.googleapis.com%2Fcss%3Ffamily%3DArchitects%2BDaughter;fontSize=20;rotation=-45;" vertex="1" parent="1">
          <mxGeometry x="910" y="515.73" width="84.14" height="15" as="geometry" />
        </mxCell>
        <mxCell id="pRkRrKTo8ttl0fT0p-DP-8" value="" style="triangle;whiteSpace=wrap;html=1;sketch=1;hachureGap=4;jiggle=2;curveFitting=1;fontFamily=Architects Daughter;fontSource=https%3A%2F%2Ffonts.googleapis.com%2Fcss%3Ffamily%3DArchitects%2BDaughter;fontSize=20;rotation=128;" vertex="1" parent="1">
          <mxGeometry x="910" y="550" width="20" height="16.06" as="geometry" />
        </mxCell>
        <mxCell id="pRkRrKTo8ttl0fT0p-DP-9" value="" style="rounded=0;whiteSpace=wrap;html=1;sketch=1;hachureGap=4;jiggle=2;curveFitting=1;fontFamily=Architects Daughter;fontSource=https%3A%2F%2Ffonts.googleapis.com%2Fcss%3Ffamily%3DArchitects%2BDaughter;fontSize=20;rotation=-135;" vertex="1" parent="1">
          <mxGeometry x="981.77" y="480.00000000000006" width="20" height="11.93" as="geometry" />
        </mxCell>
        <mxCell id="pRkRrKTo8ttl0fT0p-DP-12" value="" style="shape=trapezoid;perimeter=trapezoidPerimeter;whiteSpace=wrap;html=1;fixedSize=1;sketch=1;hachureGap=4;jiggle=2;curveFitting=1;fontFamily=Architects Daughter;fontSource=https%3A%2F%2Ffonts.googleapis.com%2Fcss%3Ffamily%3DArchitects%2BDaughter;fontSize=20;size=10;rotation=-180;" vertex="1" parent="1">
          <mxGeometry x="1100" y="480" width="80" height="94.27" as="geometry" />
        </mxCell>
        <mxCell id="pRkRrKTo8ttl0fT0p-DP-13" value="3" style="rounded=0;whiteSpace=wrap;html=1;sketch=1;hachureGap=4;jiggle=2;curveFitting=1;fontFamily=Architects Daughter;fontSource=https%3A%2F%2Ffonts.googleapis.com%2Fcss%3Ffamily%3DArchitects%2BDaughter;fontSize=52;spacingLeft=-100;" vertex="1" parent="1">
          <mxGeometry x="560" y="620" width="270" height="110" as="geometry" />
        </mxCell>
        <mxCell id="pRkRrKTo8ttl0fT0p-DP-17" value="" style="triangle;whiteSpace=wrap;html=1;sketch=1;hachureGap=4;jiggle=2;curveFitting=1;fontFamily=Architects Daughter;fontSource=https%3A%2F%2Ffonts.googleapis.com%2Fcss%3Ffamily%3DArchitects%2BDaughter;fontSize=20;rotation=90;" vertex="1" parent="1">
          <mxGeometry x="730" y="640" width="60" height="80" as="geometry" />
        </mxCell>
        <mxCell id="pRkRrKTo8ttl0fT0p-DP-18" value="$133.99" style="rounded=0;whiteSpace=wrap;html=1;sketch=1;hachureGap=4;jiggle=2;curveFitting=1;fontFamily=Architects Daughter;fontSource=https%3A%2F%2Ffonts.googleapis.com%2Fcss%3Ffamily%3DArchitects%2BDaughter;fontSize=56;" vertex="1" parent="1">
          <mxGeometry x="860" y="620" width="320" height="110" as="geometry" />
        </mxCell>
        <mxCell id="pRkRrKTo8ttl0fT0p-DP-19" value="IMAGE" style="rounded=0;whiteSpace=wrap;html=1;sketch=1;hachureGap=4;jiggle=2;curveFitting=1;fontFamily=Architects Daughter;fontSource=https%3A%2F%2Ffonts.googleapis.com%2Fcss%3Ffamily%3DArchitects%2BDaughter;fontSize=20;fillColor=#60a917;fontColor=#ffffff;strokeColor=#2D7600;" vertex="1" parent="1">
          <mxGeometry x="150" y="820" width="340" height="280" as="geometry" />
        </mxCell>
        <mxCell id="pRkRrKTo8ttl0fT0p-DP-20" value="ITEM NAME" style="rounded=0;whiteSpace=wrap;html=1;sketch=1;hachureGap=4;jiggle=2;curveFitting=1;fontFamily=Architects Daughter;fontSource=https%3A%2F%2Ffonts.googleapis.com%2Fcss%3Ffamily%3DArchitects%2BDaughter;fontSize=46;strokeColor=none;" vertex="1" parent="1">
          <mxGeometry x="510" y="847.14" width="360" height="60" as="geometry" />
        </mxCell>
        <mxCell id="pRkRrKTo8ttl0fT0p-DP-21" value="" style="rounded=0;whiteSpace=wrap;html=1;sketch=1;hachureGap=4;jiggle=2;curveFitting=1;fontFamily=Architects Daughter;fontSource=https%3A%2F%2Ffonts.googleapis.com%2Fcss%3Ffamily%3DArchitects%2BDaughter;fontSize=20;rotation=-45;" vertex="1" parent="1">
          <mxGeometry x="910" y="865.73" width="84.14" height="15" as="geometry" />
        </mxCell>
        <mxCell id="pRkRrKTo8ttl0fT0p-DP-22" value="" style="triangle;whiteSpace=wrap;html=1;sketch=1;hachureGap=4;jiggle=2;curveFitting=1;fontFamily=Architects Daughter;fontSource=https%3A%2F%2Ffonts.googleapis.com%2Fcss%3Ffamily%3DArchitects%2BDaughter;fontSize=20;rotation=128;" vertex="1" parent="1">
          <mxGeometry x="910" y="900" width="20" height="16.06" as="geometry" />
        </mxCell>
        <mxCell id="pRkRrKTo8ttl0fT0p-DP-23" value="" style="rounded=0;whiteSpace=wrap;html=1;sketch=1;hachureGap=4;jiggle=2;curveFitting=1;fontFamily=Architects Daughter;fontSource=https%3A%2F%2Ffonts.googleapis.com%2Fcss%3Ffamily%3DArchitects%2BDaughter;fontSize=20;rotation=-135;" vertex="1" parent="1">
          <mxGeometry x="981.77" y="830" width="20" height="11.93" as="geometry" />
        </mxCell>
        <mxCell id="pRkRrKTo8ttl0fT0p-DP-24" value="" style="shape=trapezoid;perimeter=trapezoidPerimeter;whiteSpace=wrap;html=1;fixedSize=1;sketch=1;hachureGap=4;jiggle=2;curveFitting=1;fontFamily=Architects Daughter;fontSource=https%3A%2F%2Ffonts.googleapis.com%2Fcss%3Ffamily%3DArchitects%2BDaughter;fontSize=20;size=10;rotation=-180;" vertex="1" parent="1">
          <mxGeometry x="1100" y="830" width="80" height="94.27" as="geometry" />
        </mxCell>
        <mxCell id="pRkRrKTo8ttl0fT0p-DP-25" value="3" style="rounded=0;whiteSpace=wrap;html=1;sketch=1;hachureGap=4;jiggle=2;curveFitting=1;fontFamily=Architects Daughter;fontSource=https%3A%2F%2Ffonts.googleapis.com%2Fcss%3Ffamily%3DArchitects%2BDaughter;fontSize=52;spacingLeft=-100;" vertex="1" parent="1">
          <mxGeometry x="560" y="970" width="270" height="110" as="geometry" />
        </mxCell>
        <mxCell id="pRkRrKTo8ttl0fT0p-DP-26" value="" style="triangle;whiteSpace=wrap;html=1;sketch=1;hachureGap=4;jiggle=2;curveFitting=1;fontFamily=Architects Daughter;fontSource=https%3A%2F%2Ffonts.googleapis.com%2Fcss%3Ffamily%3DArchitects%2BDaughter;fontSize=20;rotation=90;" vertex="1" parent="1">
          <mxGeometry x="730" y="990" width="60" height="80" as="geometry" />
        </mxCell>
        <mxCell id="pRkRrKTo8ttl0fT0p-DP-27" value="$133.99" style="rounded=0;whiteSpace=wrap;html=1;sketch=1;hachureGap=4;jiggle=2;curveFitting=1;fontFamily=Architects Daughter;fontSource=https%3A%2F%2Ffonts.googleapis.com%2Fcss%3Ffamily%3DArchitects%2BDaughter;fontSize=56;" vertex="1" parent="1">
          <mxGeometry x="860" y="970" width="320" height="110" as="geometry" />
        </mxCell>
        <mxCell id="pRkRrKTo8ttl0fT0p-DP-28" value="IMAGE" style="rounded=0;whiteSpace=wrap;html=1;sketch=1;hachureGap=4;jiggle=2;curveFitting=1;fontFamily=Architects Daughter;fontSource=https%3A%2F%2Ffonts.googleapis.com%2Fcss%3Ffamily%3DArchitects%2BDaughter;fontSize=20;fillColor=#60a917;fontColor=#ffffff;strokeColor=#2D7600;" vertex="1" parent="1">
          <mxGeometry x="150" y="1160" width="340" height="280" as="geometry" />
        </mxCell>
        <mxCell id="pRkRrKTo8ttl0fT0p-DP-29" value="ITEM NAME" style="rounded=0;whiteSpace=wrap;html=1;sketch=1;hachureGap=4;jiggle=2;curveFitting=1;fontFamily=Architects Daughter;fontSource=https%3A%2F%2Ffonts.googleapis.com%2Fcss%3Ffamily%3DArchitects%2BDaughter;fontSize=46;strokeColor=none;" vertex="1" parent="1">
          <mxGeometry x="510" y="1187.1399999999999" width="360" height="60" as="geometry" />
        </mxCell>
        <mxCell id="pRkRrKTo8ttl0fT0p-DP-30" value="" style="rounded=0;whiteSpace=wrap;html=1;sketch=1;hachureGap=4;jiggle=2;curveFitting=1;fontFamily=Architects Daughter;fontSource=https%3A%2F%2Ffonts.googleapis.com%2Fcss%3Ffamily%3DArchitects%2BDaughter;fontSize=20;rotation=-45;" vertex="1" parent="1">
          <mxGeometry x="910" y="1205.73" width="84.14" height="15" as="geometry" />
        </mxCell>
        <mxCell id="pRkRrKTo8ttl0fT0p-DP-31" value="" style="triangle;whiteSpace=wrap;html=1;sketch=1;hachureGap=4;jiggle=2;curveFitting=1;fontFamily=Architects Daughter;fontSource=https%3A%2F%2Ffonts.googleapis.com%2Fcss%3Ffamily%3DArchitects%2BDaughter;fontSize=20;rotation=128;" vertex="1" parent="1">
          <mxGeometry x="910" y="1240" width="20" height="16.06" as="geometry" />
        </mxCell>
        <mxCell id="pRkRrKTo8ttl0fT0p-DP-32" value="" style="rounded=0;whiteSpace=wrap;html=1;sketch=1;hachureGap=4;jiggle=2;curveFitting=1;fontFamily=Architects Daughter;fontSource=https%3A%2F%2Ffonts.googleapis.com%2Fcss%3Ffamily%3DArchitects%2BDaughter;fontSize=20;rotation=-135;" vertex="1" parent="1">
          <mxGeometry x="981.77" y="1170" width="20" height="11.93" as="geometry" />
        </mxCell>
        <mxCell id="pRkRrKTo8ttl0fT0p-DP-33" value="" style="shape=trapezoid;perimeter=trapezoidPerimeter;whiteSpace=wrap;html=1;fixedSize=1;sketch=1;hachureGap=4;jiggle=2;curveFitting=1;fontFamily=Architects Daughter;fontSource=https%3A%2F%2Ffonts.googleapis.com%2Fcss%3Ffamily%3DArchitects%2BDaughter;fontSize=20;size=10;rotation=-180;" vertex="1" parent="1">
          <mxGeometry x="1100" y="1170" width="80" height="94.27" as="geometry" />
        </mxCell>
        <mxCell id="pRkRrKTo8ttl0fT0p-DP-34" value="3" style="rounded=0;whiteSpace=wrap;html=1;sketch=1;hachureGap=4;jiggle=2;curveFitting=1;fontFamily=Architects Daughter;fontSource=https%3A%2F%2Ffonts.googleapis.com%2Fcss%3Ffamily%3DArchitects%2BDaughter;fontSize=52;spacingLeft=-100;" vertex="1" parent="1">
          <mxGeometry x="560" y="1310" width="270" height="110" as="geometry" />
        </mxCell>
        <mxCell id="pRkRrKTo8ttl0fT0p-DP-35" value="" style="triangle;whiteSpace=wrap;html=1;sketch=1;hachureGap=4;jiggle=2;curveFitting=1;fontFamily=Architects Daughter;fontSource=https%3A%2F%2Ffonts.googleapis.com%2Fcss%3Ffamily%3DArchitects%2BDaughter;fontSize=20;rotation=90;" vertex="1" parent="1">
          <mxGeometry x="730" y="1330" width="60" height="80" as="geometry" />
        </mxCell>
        <mxCell id="pRkRrKTo8ttl0fT0p-DP-36" value="$133.99" style="rounded=0;whiteSpace=wrap;html=1;sketch=1;hachureGap=4;jiggle=2;curveFitting=1;fontFamily=Architects Daughter;fontSource=https%3A%2F%2Ffonts.googleapis.com%2Fcss%3Ffamily%3DArchitects%2BDaughter;fontSize=56;" vertex="1" parent="1">
          <mxGeometry x="860" y="1310" width="320" height="110" as="geometry" />
        </mxCell>
        <mxCell id="pRkRrKTo8ttl0fT0p-DP-37" value="" style="rounded=0;whiteSpace=wrap;html=1;sketch=1;hachureGap=4;jiggle=2;curveFitting=1;fontFamily=Architects Daughter;fontSource=https%3A%2F%2Ffonts.googleapis.com%2Fcss%3Ffamily%3DArchitects%2BDaughter;fontSize=20;" vertex="1" parent="1">
          <mxGeometry x="150" y="1500" width="1030" height="10" as="geometry" />
        </mxCell>
        <mxCell id="pRkRrKTo8ttl0fT0p-DP-38" value="Total:" style="rounded=0;whiteSpace=wrap;html=1;sketch=1;hachureGap=4;jiggle=2;curveFitting=1;fontFamily=Architects Daughter;fontSource=https%3A%2F%2Ffonts.googleapis.com%2Fcss%3Ffamily%3DArchitects%2BDaughter;fontSize=55;strokeColor=none;" vertex="1" parent="1">
          <mxGeometry x="150" y="1570" width="170" height="80" as="geometry" />
        </mxCell>
        <mxCell id="pRkRrKTo8ttl0fT0p-DP-39" value="$401.97" style="rounded=0;whiteSpace=wrap;html=1;sketch=1;hachureGap=4;jiggle=2;curveFitting=1;fontFamily=Architects Daughter;fontSource=https%3A%2F%2Ffonts.googleapis.com%2Fcss%3Ffamily%3DArchitects%2BDaughter;fontSize=55;strokeColor=none;" vertex="1" parent="1">
          <mxGeometry x="1030" y="1580" width="120" height="60" as="geometry" />
        </mxCell>
        <mxCell id="pRkRrKTo8ttl0fT0p-DP-40" value="BEGIN CHECKOUT" style="rounded=1;whiteSpace=wrap;html=1;sketch=1;hachureGap=4;jiggle=2;curveFitting=1;fontFamily=Architects Daughter;fontSource=https%3A%2F%2Ffonts.googleapis.com%2Fcss%3Ffamily%3DArchitects%2BDaughter;fontSize=100;strokeWidth=3;" vertex="1" parent="1">
          <mxGeometry x="160" y="1790" width="1020" height="220" as="geometry" />
        </mxCell>
      </root>
    </mxGraphModel>
  </diagram>
</mxfile>
